<?xml version="1.0" standalone="no"?>
<!DOCTYPE svg PUBLIC "-//W3C//DTD SVG 20010904//EN"
 "http://www.w3.org/TR/2001/REC-SVG-20010904/DTD/svg10.dtd">
<svg version="1.0" xmlns="http://www.w3.org/2000/svg"
 width="541.000000pt" height="566.000000pt" viewBox="0 0 541.000000 566.000000"
 preserveAspectRatio="xMidYMid meet">

<g transform="translate(0.000000,566.000000) scale(0.100000,-0.100000)"
fill="#000000" stroke="none">
<path d="M1065 5569 c-185 -27 -413 -134 -572 -268 -158 -134 -295 -358 -350
-571 -25 -101 -26 -118 -33 -480 -4 -206 -5 -1003 -3 -1770 5 -1529 2 -1459
65 -1640 16 -47 44 -110 61 -140 17 -30 35 -64 41 -75 58 -106 246 -304 364
-384 95 -64 216 -118 327 -146 l100 -25 1638 0 c1594 0 1639 1 1710 20 96 25
115 33 222 86 327 161 569 486 636 854 20 108 21 3500 1 3604 -18 94 -68 248
-104 321 -136 270 -380 483 -654 568 -188 59 -118 57 -1824 56 -861 -1 -1592
-5 -1625 -10z m1504 -607 c35 -26 39 -71 9 -99 -17 -16 -55 -28 -133 -44 -429
-82 -855 -330 -1105 -640 -46 -57 -108 -142 -138 -189 -154 -237 -273 -561
-315 -857 l-13 -88 -69 -3 -68 -3 6 103 c23 405 216 877 480 1178 321 367 694
570 1217 664 44 8 103 -2 129 -22z m434 -322 c157 -26 288 -70 442 -146 529
-260 880 -780 921 -1361 4 -53 3 -93 -2 -93 -18 0 -314 59 -323 64 -5 3 -12
31 -16 62 -11 92 -62 258 -114 374 -173 389 -525 672 -953 770 -54 12 -98 25
-98 29 0 7 -39 194 -58 279 l-10 42 48 0 c26 0 100 -9 163 -20z m-420 -22 c-4
-18 -18 -89 -33 -158 l-26 -125 -55 -13 c-318 -78 -534 -195 -731 -394 -142
-145 -221 -267 -298 -462 -43 -108 -90 -288 -90 -345 0 -15 -9 -22 -37 -27
-21 -4 -80 -14 -132 -24 l-94 -17 7 72 c14 158 81 374 176 570 156 322 443
611 768 774 145 72 377 151 512 174 14 2 28 5 32 6 4 0 5 -14 1 -31z m176
-748 c63 -306 76 -552 37 -660 -9 -25 -35 -76 -58 -114 l-41 -70 -20 25 c-35
43 -78 140 -93 208 -27 129 -13 278 63 666 l47 240 18 -75 c10 -41 31 -140 47
-220z m-283 213 c-31 -105 -90 -507 -101 -689 l-7 -112 -77 -6 c-210 -18 -457
-62 -634 -113 -49 -14 -90 -23 -93 -21 -2 3 12 62 31 133 79 286 233 502 475
664 119 80 309 158 388 160 18 1 22 -3 18 -16z m565 -13 c279 -93 500 -276
651 -540 43 -75 79 -169 108 -283 28 -109 28 -109 6 -104 -11 3 -75 18 -141
35 -220 56 -497 101 -626 102 -14 0 -17 18 -23 108 -4 59 -11 148 -17 197 -10
95 -74 470 -85 498 -9 25 24 22 127 -13z m-606 -1005 c65 -17 205 -81 205 -94
0 -11 -61 -51 -128 -85 -112 -57 -257 -70 -446 -40 -190 30 -407 88 -389 104
11 11 152 57 232 76 220 53 414 67 526 39z m946 -19 c127 -24 339 -84 339 -96
0 -9 -153 -57 -240 -76 -218 -46 -398 -56 -500 -29 -66 17 -166 67 -211 104
l-32 27 82 37 c125 57 177 68 316 62 66 -3 177 -16 246 -29z m-643 -213 c71
-142 77 -169 76 -348 -1 -115 -7 -196 -23 -290 -20 -120 -88 -435 -95 -443
-10 -9 -88 386 -111 561 -27 211 -17 342 36 462 23 54 68 135 75 135 2 0 21
-35 42 -77z m1628 -45 c-33 -299 -179 -626 -389 -870 -199 -231 -510 -439
-802 -536 -84 -28 -239 -64 -329 -76 l-38 -5 6 37 c4 20 19 93 34 161 l27 124
95 19 c534 108 959 537 1056 1066 l16 88 156 26 c87 14 161 26 166 27 5 0 6
-27 2 -61z m-3509 38 c1 -1 5 -44 8 -96 l6 -95 -45 50 c-41 44 -86 120 -86
144 0 7 107 4 117 -3z m378 -13 c55 -9 102 -17 104 -19 1 -1 10 -40 17 -86 68
-391 342 -753 712 -942 121 -61 258 -110 359 -127 37 -6 72 -15 76 -19 6 -5
76 -296 77 -317 0 -15 -300 51 -409 89 -252 88 -544 288 -727 498 -245 281
-374 579 -374 868 l0 85 33 -7 c17 -4 77 -14 132 -23z m365 -63 c164 -48 434
-96 625 -111 77 -5 141 -11 142 -13 2 -1 7 -70 13 -152 14 -197 52 -462 87
-603 6 -22 4 -23 -38 -16 -113 19 -271 87 -398 172 -161 108 -296 267 -386
455 -46 95 -100 278 -82 278 1 0 18 -5 37 -10z m2200 -102 c-46 -178 -155
-363 -294 -496 -95 -91 -168 -143 -284 -201 -115 -58 -302 -119 -302 -98 0 1
13 72 29 157 32 168 56 357 67 516 l6 102 37 6 c20 3 62 6 93 6 117 0 390 45
593 98 55 14 71 15 73 5 2 -7 -6 -50 -18 -95z m679 -1121 c339 -345 347 -356
339 -487 -6 -96 -39 -170 -102 -228 -69 -64 -119 -85 -212 -90 -139 -8 -148
-2 -499 348 l-300 299 230 230 c127 126 235 229 241 228 6 -1 143 -136 303
-300z"/>
<path d="M4111 1489 l-84 -88 56 -63 c31 -35 130 -136 220 -225 177 -176 184
-180 253 -147 46 22 74 70 74 129 l0 48 -212 217 c-117 119 -215 217 -218 217
-3 0 -43 -39 -89 -88z"/>
</g>
</svg>
